<?xml version="1.0" standalone="no"?>
<!DOCTYPE svg PUBLIC "-//W3C//DTD SVG 20010904//EN"
 "http://www.w3.org/TR/2001/REC-SVG-20010904/DTD/svg10.dtd">
<svg version="1.0" xmlns="http://www.w3.org/2000/svg"
 width="50.000000pt" height="50.000000pt" viewBox="0 0 50.000000 50.000000"
 preserveAspectRatio="xMidYMid meet">

<g transform="translate(0.000000,50.000000) scale(0.100000,-0.100000)"
fill="#000000" stroke="none">
<path d="M155 456 c-60 -28 -87 -56 -114 -116 -36 -79 -19 -183 42 -249 33
-36 115 -71 167 -71 52 0 134 35 167 71 34 37 63 110 63 159 0 52 -35 134 -71
167 -37 34 -110 63 -159 63 -27 0 -65 -10 -95 -24z m180 -15 c128 -58 164
-223 72 -328 -101 -115 -283 -88 -348 52 -79 171 104 354 276 276z"/>
<path d="M126 318 c-8 -12 -12 -26 -9 -31 4 -6 13 -1 21 11 17 26 50 29 59 5
4 -10 -1 -22 -15 -33 l-21 -17 25 -11 c26 -13 31 -31 12 -50 -18 -18 -46 -14
-60 8 -15 23 -28 26 -28 7 0 -21 34 -47 62 -47 47 0 79 67 42 88 -11 6 -13 11
-5 16 18 12 13 54 -8 66 -31 16 -59 12 -75 -12z"/>
<path d="M260 250 l0 -90 44 0 c66 0 91 25 91 90 0 65 -25 90 -91 90 l-44 0 0
-90z m100 50 c11 -11 20 -33 20 -50 0 -17 -9 -39 -20 -50 -11 -11 -33 -20 -50
-20 l-30 0 0 70 0 70 30 0 c17 0 39 -9 50 -20z"/>
</g>
</svg>
