<?xml version="1.0" encoding="iso-8859-1"?>
<!-- Uploaded to: SVG Repo, www.svgrepo.com, Generator: SVG Repo Mixer Tools -->
<!DOCTYPE svg PUBLIC "-//W3C//DTD SVG 1.1//EN" "http://www.w3.org/Graphics/SVG/1.1/DTD/svg11.dtd">
<svg fill="#000000" version="1.1" id="Capa_1" xmlns="http://www.w3.org/2000/svg" xmlns:xlink="http://www.w3.org/1999/xlink" 
	 width="800px" height="800px" viewBox="0 0 964.396 964.396"
	 xml:space="preserve">
<g>
	<g>
		<path d="M430.669,298.895h-19.411c-2.263,0-4.097,1.834-4.097,4.097v58.32c0,2.263-1.834,4.097-4.097,4.097l-11.87,0.24
			c-2.642,0.053-4.756,2.21-4.756,4.853v337.893h-13.557c-4.525,0-8.193,3.669-8.193,8.193v93.755h-11.507
			c-4.526,0-8.194,3.669-8.194,8.194v137.664c0,4.526,3.669,8.194,8.194,8.194h129.016h129.016c4.526,0,8.194-3.669,8.194-8.194
			V818.537c0-4.526-3.669-8.194-8.194-8.194h-11.097v-93.755c0-4.525-3.669-8.193-8.194-8.193h-13.965V370.502
			c0-2.643-2.114-4.8-4.756-4.853l-11.891-0.24c-2.264,0-4.098-1.834-4.098-4.097v-58.32c0-2.263-1.834-4.097-4.097-4.097h-19.389
			c-2.264,0-4.098-1.834-4.098-4.097c0-3.829,0.419-7.883,0.06-11.758c-0.078-0.839-0.193-1.669-0.356-2.486
			c-0.868-4.351-3.625-6.436-6.083-9.751c-1.313-1.773-2.639-3.523-3.859-5.364c-8.161-12.315-13.712-26.322-17.907-40.425
			c-5.21-17.516-8.079-35.645-8.828-53.904L485.937,7.327C485.669,2.442,483.934,0,482.198,0s-3.471,2.442-3.739,7.327
			l-6.717,163.782c-0.749,18.259-3.618,36.388-8.828,53.904c-4.195,14.103-9.746,28.11-17.907,40.425
			c-1.22,1.841-2.546,3.591-3.859,5.364c-2.458,3.315-5.215,5.401-6.083,9.751c-0.163,0.818-0.278,1.648-0.356,2.486
			c-0.359,3.875,0.06,7.929,0.06,11.758C434.768,297.061,432.933,298.895,430.669,298.895z M525.163,394.883
			c0-2.263,1.834-4.097,4.098-4.097h17.31c2.263,0,4.097,1.834,4.097,4.097v17.438c0,2.263-1.834,4.097-4.097,4.097h-17.31
			c-2.264,0-4.098-1.834-4.098-4.097V394.883z M525.163,451.423c0-2.263,1.834-4.097,4.098-4.097h17.31
			c2.263,0,4.097,1.834,4.097,4.097v17.438c0,2.263-1.834,4.097-4.097,4.097h-17.31c-2.264,0-4.098-1.834-4.098-4.097V451.423z
			 M525.163,507.964c0-2.263,1.834-4.097,4.098-4.097h17.31c2.263,0,4.097,1.834,4.097,4.097v17.438
			c0,2.263-1.834,4.097-4.097,4.097h-17.31c-2.264,0-4.098-1.834-4.098-4.097V507.964z M525.163,563.654
			c0-2.263,1.834-4.097,4.098-4.097h17.31c2.263,0,4.097,1.834,4.097,4.097v17.43c0,2.263-1.834,4.097-4.097,4.097h-17.31
			c-2.264,0-4.098-1.834-4.098-4.097V563.654z M525.163,619.359c0-2.264,1.834-4.098,4.098-4.098h17.31
			c2.263,0,4.097,1.834,4.097,4.098v17.43c0,2.263-1.834,4.097-4.097,4.097h-17.31c-2.264,0-4.098-1.834-4.098-4.097V619.359z
			 M525.163,675.056c0-2.263,1.834-4.097,4.098-4.097h17.31c2.263,0,4.097,1.834,4.097,4.097v17.423
			c0,2.263-1.834,4.097-4.097,4.097h-17.31c-2.264,0-4.098-1.834-4.098-4.097V675.056z M469.459,394.883
			c0-2.263,1.834-4.097,4.098-4.097h8.641h8.648c2.263,0,4.097,1.834,4.097,4.097v17.438c0,2.263-1.834,4.097-4.097,4.097h-8.648
			h-8.641c-2.264,0-4.098-1.834-4.098-4.097V394.883L469.459,394.883z M469.459,451.423c0-2.263,1.834-4.097,4.098-4.097h8.641
			h8.648c2.263,0,4.097,1.834,4.097,4.097v17.438c0,2.263-1.834,4.097-4.097,4.097h-8.648h-8.641c-2.264,0-4.098-1.834-4.098-4.097
			V451.423L469.459,451.423z M469.459,507.964c0-2.263,1.834-4.097,4.098-4.097h8.641h8.648c2.263,0,4.097,1.834,4.097,4.097v17.438
			c0,2.263-1.834,4.097-4.097,4.097h-8.648h-8.641c-2.264,0-4.098-1.834-4.098-4.097V507.964L469.459,507.964z M469.459,563.654
			c0-2.263,1.834-4.097,4.098-4.097h8.641h8.648c2.263,0,4.097,1.834,4.097,4.097v17.43c0,2.263-1.834,4.097-4.097,4.097h-8.648
			h-8.641c-2.264,0-4.098-1.834-4.098-4.097V563.654L469.459,563.654z M469.459,619.359c0-2.264,1.834-4.098,4.098-4.098h8.641
			h8.648c2.263,0,4.097,1.834,4.097,4.098v17.43c0,2.263-1.834,4.097-4.097,4.097h-8.648h-8.641c-2.264,0-4.098-1.834-4.098-4.097
			V619.359L469.459,619.359z M469.459,675.056c0-2.263,1.834-4.097,4.098-4.097h8.641h8.648c2.263,0,4.097,1.834,4.097,4.097v17.423
			c0,2.263-1.834,4.097-4.097,4.097h-8.648h-8.641c-2.264,0-4.098-1.834-4.098-4.097V675.056L469.459,675.056z M439.233,692.479
			c0,2.263-1.834,4.097-4.098,4.097h-17.31c-2.263,0-4.097-1.834-4.097-4.097v-17.422c0-2.264,1.834-4.098,4.097-4.098h17.31
			c2.264,0,4.098,1.834,4.098,4.098V692.479L439.233,692.479z M439.233,636.788c0,2.263-1.834,4.097-4.098,4.097h-17.31
			c-2.263,0-4.097-1.834-4.097-4.097v-17.43c0-2.264,1.834-4.098,4.097-4.098h17.31c2.264,0,4.098,1.834,4.098,4.098V636.788
			L439.233,636.788z M439.233,581.084c0,2.263-1.834,4.097-4.098,4.097h-17.31c-2.263,0-4.097-1.834-4.097-4.097v-17.43
			c0-2.263,1.834-4.097,4.097-4.097h17.31c2.264,0,4.098,1.834,4.098,4.097V581.084L439.233,581.084z M439.233,525.401
			c0,2.263-1.834,4.097-4.098,4.097h-17.31c-2.263,0-4.097-1.834-4.097-4.097v-17.438c0-2.263,1.834-4.097,4.097-4.097h17.31
			c2.264,0,4.098,1.834,4.098,4.097V525.401L439.233,525.401z M439.233,468.86c0,2.263-1.834,4.097-4.098,4.097h-17.31
			c-2.263,0-4.097-1.834-4.097-4.097v-17.438c0-2.263,1.834-4.097,4.097-4.097h17.31c2.264,0,4.098,1.834,4.098,4.097V468.86
			L439.233,468.86z M435.135,390.785c2.264,0,4.098,1.834,4.098,4.097v17.438c0,2.263-1.834,4.097-4.098,4.097h-17.31
			c-2.263,0-4.097-1.834-4.097-4.097v-17.438c0-2.263,1.834-4.097,4.097-4.097H435.135z"/>
	</g>
</g>
</svg>